{"title":"Black Caesar (1973) [thePiratePimp]","uid":11878911,"size":734253056,"categoryP":"video","categoryS":"movies","magnet":"?xt=urn:btih:c3f5b679a9ce4c319bc5ed36225d655aff606f7d&amp;dn=Black+Caesar+%281973%29+%5BthePiratePimp%5D&amp;tr=udp%3A%2F%2Ftracker.openbittorrent.com%3A80&amp;tr=udp%3A%2F%2Fopen.demonii.com%3A1337&amp;tr=udp%3A%2F%2Ftracker.coppersurfer.tk%3A6969&amp;tr=udp%3A%2F%2Fexodus.desync.com%3A6969","seeders":7,"leechers":0,"uploader":"thepiratepimp","files":1,"time":1430638082,"description":"Black Caesar (1973) [thePiratePimp]\n &lt;a href=&quot;\nhttps://yuq.me/users/23/020/v8sQL73lkx.jpg&quot; rel=&quot;nofollow&quot; target=&quot;_NEW&quot;&gt;\nhttps://yuq.me/users/23/020/v8sQL73lkx.jpg&lt;/a&gt; &lt;a href=&quot;\nhttps://yuq.me/users/23/020/Y4ghCyMwl2.jpg&quot; rel=&quot;nofollow&quot; target=&quot;_NEW&quot;&gt;\nhttps://yuq.me/users/23/020/Y4ghCyMwl2.jpg&lt;/a&gt;\n\nBlack Caesar is a 1973 American blaxploitation film, starring Fred Williamson and Gloria Hendry. The film was written and directed by Larry Cohen. It is a remake of the 1931 film Little Caesar. It features a notable musical score (Black Caesar) by James Brown (with heavy input from his bandleader Fred Wesley), his first experience with writing music for film. A sequel titled Hell Up in Harlem was released in late 1973.\n\nGeneral\nComplete name : Black Caesar (1973) [thePiratePimp].avi\nFormat : AVI\nFormat/Info : Audio Video Interleave\nFile size : 700 MiB\nDuration : 1h 33mn\nOverall bit rate mode : Variable\nOverall bit rate : 1 043 Kbps\nWriting application : VirtualDubMod 1.5.4.1 (build 2178/release)\nWriting library : VirtualDubMod build 2178/release\n\nVideo\nID : 0\nFormat : MPEG-4 Visual\nFormat profile : Advanced Simple@L5\nFormat settings, BVOP : 1\nFormat settings, QPel : No\nFormat settings, GMC : No warppoints\nFormat settings, Matrix : Custom\nCodec ID : XVID\nCodec ID/Hint : XviD\nDuration : 1h 33mn\nBit rate : 927 Kbps\nWidth : 704 pixels\nHeight : 384 pixels\nDisplay aspect ratio : 1.85:1\nFrame rate : 23.976 fps\nColor space : YUV\nChroma subsampling : 4:2:0\nBit depth : 8 bits\nScan type : Progressive\nCompression mode : Lossy\nBits/(Pixel*Frame) : 0.143\nStream size : 623 MiB (89%)\nWriting library : XviD 1.2.1 (UTC 2008-12-04)\n\nAudio\nID : 1\nFormat : MPEG Audio\nFormat version : Version 1\nFormat profile : Layer 3\nMode : Joint stereo\nMode extension : MS Stereo\nCodec ID : 55\nCodec ID/Hint : MP3\nDuration : 1h 33mn\nBit rate mode : Variable\nBit rate : 103 Kbps\nNominal bit rate : 128 Kbps\nChannel(s) : 2 channels\nSampling rate : 48.0 KHz\nCompression mode : Lossy\nStream size : 69.1 MiB (10%)\nAlignment : Aligned on interleaves\nInterleave, duration : 24 ms (0.58 video frame)\nInterleave, preload duration : 178 ms\nWriting library : LAME3.98r\nEncoding settings : -m j -V 4 -q 2 -lowpass 17 --abr 128\nLanguage : English","torrent":{"xt":"urn:btih:c3f5b679a9ce4c319bc5ed36225d655aff606f7d","amp;dn":"Black+Caesar+%281973%29+%5BthePiratePimp%5D","amp;tr":["udp%3A%2F%2Ftracker.openbittorrent.com%3A80","udp%3A%2F%2Fopen.demonii.com%3A1337","udp%3A%2F%2Ftracker.coppersurfer.tk%3A6969","udp%3A%2F%2Fexodus.desync.com%3A6969"],"infoHash":"c3f5b679a9ce4c319bc5ed36225d655aff606f7d","infoHashBuffer":{"type":"Buffer","data":[195,245,182,121,169,206,76,49,155,197,237,54,34,93,101,90,255,96,111,125]},"announce":[],"urlList":[]}}